<svg xmlns="http://www.w3.org/2000/svg" viewBox="0 0 512 512">
  <defs>
    <linearGradient id="bg" x1="0" y1="0" x2="1" y2="1">
      <stop offset="0" stop-color="#e3dcfb" />
      <stop offset="1" stop-color="#d6e9ff" />
    </linearGradient>
  </defs>
  <rect width="512" height="512" rx="72" fill="url(#bg)" />
  <g fill="#12162c">
    <ellipse cx="250" cy="310" rx="150" ry="70" />
    <circle cx="150" cy="260" r="52" />
    <path d="M112 230l-40-30 18-28 46 32z" />
    <path d="M188 230l40-30-18-28-46 32z" />
    <rect x="110" y="320" width="90" height="26" rx="13" />
    <rect x="210" y="328" width="96" height="26" rx="13" />
    <rect x="320" y="324" width="96" height="26" rx="13" />
    <path d="M360 200c60 10 92 70 40 110-22 16-26 40-18 62 8 20-10 34-30 22-24-14-26-40-22-66 6-40 16-64 0-84-18-22-20-44-8-62 10-16 22-22 38-20z" />
  </g>
</svg>
